PathFileType	4	(X/Y/Z)	1_Data\ik.trc
DataRate	CameraRate	NumFrames	NumMarkers	Units	OrigDataRate	OrigDataStartFrame	OrigNumFrames
120.000000	120.000000	4	54	mm	120.000000	16	131
Frame#	Time	Sternum			Neck			RShoulder			LShoulder			Xiphoid			Thoracic			RAsis			LAsis			RPsis			LPsis			Lumbar			RElbow			RWrist			RRadius			RUlna			LElbow			LWrist			LUlna			LRadius			LThighSuperior			LThighInferior			LThighLateral			LPatella			LShankSuperior			LShankInferior			LShankLateral			RThighSuperior			RThighInferior			RThighLateral			RPatella			RShankSuperior			RShankInferior			RShankLateral			RHeel			RToe			RMidfootMedial			RMidfootLateral			RHindfoot			RMidfootSuperior			RToeMedial			RToeLateral			LHeel			LToe			LMidfootMedial			LMidfootLateral			LHindfoot			LMidfootSuperior			LToeMedial			LToeLateral			Oglobal			Sacral			Xglobal			Yglobal			Zglobal			
		X1	Y1	Z1	X2	Y2	Z2	X3	Y3	Z3	X4	Y4	Z4	X5	Y5	Z5	X6	Y6	Z6	X7	Y7	Z7	X8	Y8	Z8	X9	Y9	Z9	X10	Y10	Z10	X11	Y11	Z11	X12	Y12	Z12	X13	Y13	Z13	X14	Y14	Z14	X15	Y15	Z15	X16	Y16	Z16	X17	Y17	Z17	X18	Y18	Z18	X19	Y19	Z19	X20	Y20	Z20	X21	Y21	Z21	X22	Y22	Z22	X23	Y23	Z23	X24	Y24	Z24	X25	Y25	Z25	X26	Y26	Z26	X27	Y27	Z27	X28	Y28	Z28	X29	Y29	Z29	X30	Y30	Z30	X31	Y31	Z31	X32	Y32	Z32	X33	Y33	Z33	X34	Y34	Z34	X35	Y35	Z35	X36	Y36	Z36	X37	Y37	Z37	X38	Y38	Z38	X39	Y39	Z39	X40	Y40	Z40	X41	Y41	Z41	X42	Y42	Z42	X43	Y43	Z43	X44	Y44	Z44	X45	Y45	Z45	X46	Y46	Z46	X47	Y47	Z47	X48	Y48	Z48	X49	Y49	Z49	X50	Y50	Z50	X51	Y51	Z51	X52	Y52	Z52	X53	Y53	Z53	X54	Y54	Z54	

17	0.1333333333333334	230.5819091796875	1429.239990234375	110.0668869018554	67.23732757568358	1530.261352539062	110.3223114013671	114.5313491821289	1519.050903320312	273.1616210937499	98.29772186279297	1515.383422851562	-28.12284278869637	263.4212341308594	1272.011962890625	122.0470581054687	-14.64921188354494	1312.214599609375	120.9430694580077	170.8395080566406	1006.614685058594	266.3428344726562	194.7403869628906	1005.32763671875	-9.408279418945352	-12.42179679870608	1028.443481445312	171.2725067138671	-8.839582443237314	1023.035278320312	67.52095031738276	-11.3539390563965	1095.139770507812	104.6017608642577	108.1895446777343	1192.97705078125	401.5945434570312	303.6765747070312	1003.035888671875	424.6627502441406	321.0538940429687	1003.922546386719	375.0264587402344	271.9445800781249	972.0181274414062	431.0885620117188	13.53081226348879	1185.613037109375	-130.5435180664063	54.47596359252932	929.7210083007812	-197.3305053710938	18.27013587951662	924.7098999023438	-167.8248596191407	96.22731781005861	920.9653930664062	-172.7576141357422	156.7691192626953	838.2067260742188	-67.23023986816411	240.8034515380859	617.7059326171875	-34.25876998901368	287.8468627929688	735.0604858398438	11.40944671630858	335.9521179199219	550.766357421875	33.85524368286134	278.7553405761719	384.0464172363281	-39.65894317626952	270.1250610351562	183.1364440917969	-5.110075473785379	312.4946899414062	281.559814453125	28.17432975769045	109.2351913452148	808.0775756835938	314.0101928710937	108.0402069091796	569.374267578125	309.4089050292968	201.18408203125	718.441162109375	256.4108581542968	164.7105255126953	465.7607421875	262.0914001464843	22.20452880859371	448.3412475585938	321.5630798339844	-150.9324035644532	266.94677734375	286.6224365234375	-20.88948631286624	319.3338623046875	248.446548461914	-287.0016174316407	250.9843444824219	233.4390563964843	-90.18891143798831	15.00789451599123	246.9014587402344	-172.6727294921875	62.84206390380861	194.9474487304687	-179.5369110107422	63.73917770385744	312.9693908691406	-210.4972839355469	103.3750381469727	302.3626708984375	-163.3718719482422	134.7570953369141	244.1465301513672	-139.2901000976563	37.72603607177736	198.332290649414	-140.1270599365235	38.3565368652344	301.8089599609375	191.2770538330078	64.74609375	51.22140502929689	500.6246948242188	63.98247909545898	9.153952598571836	406.7839660644531	37.88759231567384	70.63159942626959	396.8973083496094	33.27969360351562	-45.25255584716792	343.1266784667969	30.45536613464355	-31.41217422485348	377.9939575195312	98.67349243164062	21.43125534057621	448.0810546875	39.90192413330079	63.05380249023443	440.5645141601562	44.51012802124023	-40.58840179443354	0	0	0	-10.63068962097169	1025.739379882812	119.3967285156249	-200	0	-2.449293598294706e-14	-2.449293598294706e-14	1.224646799147353e-14	200	1.499759782661858e-30	200	-1.224646799147353e-14	
18	0.1416666666666667	238.9749908447266	1430.737426757812	109.0029220581054	75.35782623291014	1531.46826171875	108.8695144653319	122.122085571289	1520.633178710938	271.3147888183593	107.2225723266602	1516.711303710938	-29.94014167785652	271.7463684082031	1273.52880859375	120.9513931274414	-6.179754734039321	1313.327392578125	119.3992385864257	179.1359405517578	1006.575744628906	264.8501281738281	203.2725677490234	1007.192932128906	-10.81984329223637	-3.942352056503317	1029.834594726562	169.7678985595703	-0.4598439633846363	1024.359008789062	65.82273101806635	-2.745305538177503	1096.5966796875	103.6122665405273	114.4093170166015	1194.482543945312	398.7825927734374	306.5570373535156	1000.948608398438	423.3095397949219	324.2522583007812	1001.583068847656	373.398681640625	274.0831604003906	970.5154418945312	429.5783996582031	26.29529380798342	1185.853393554688	-133.0698242187501	70.49324798583987	930.3574829101562	-199.1438293457032	33.79853439331057	925.2106323242188	-170.2707061767579	111.9463958740235	922.102783203125	-173.9795989990235	164.3851470947266	838.531005859375	-67.9054336547852	245.5879974365234	617.4967651367188	-35.4142074584961	294.6843872070312	734.5093994140625	9.419907569885245	340.3780212402344	550.2979125976562	33.93060302734376	280.407958984375	383.6293640136719	-39.02415847778319	270.5809936523438	183.0213165283203	-5.159558296203592	314.3593444824219	281.1421203613281	27.81849288940432	121.7691955566406	808.333251953125	313.0868530273437	125.7653427124023	569.77587890625	309.4639587402343	215.3597564697265	720.68115234375	255.506607055664	183.1347045898437	465.7520141601562	261.4539489746093	40.29507064819332	451.1755676269531	322.1607360839844	-135.7502899169922	273.3642272949219	285.828369140625	-2.481209039688141	323.9781494140625	249.5602874755859	-269.2047424316406	263.6741638183594	231.4148254394531	-87.18821716308597	13.57948589324953	247.3650512695312	-165.1640167236328	69.02510070800783	194.9959259033203	-171.8788146972657	70.8960418701172	311.9974365234375	-200.9747467041016	112.7703552246094	301.5376892089844	-148.8269958496094	139.6508331298828	244.2211761474609	-133.9342346191407	40.65388488769533	198.7051086425781	-134.7301788330078	41.66862487792971	302.1790161132812	191.2510223388672	64.71029663085938	51.20130538940431	500.7757263183594	63.71086502075195	9.219608306884824	406.85595703125	37.76859664916993	70.76187133789068	396.9718322753906	33.22019958496094	-45.24862670898433	343.0703430175781	30.53683090209961	-31.46278953552242	378.0325622558594	98.4378662109375	21.64439964294438	448.2064514160156	39.71947860717774	63.1342277526856	440.6589660644531	44.36572647094727	-40.50403213500971	0	0	0	-2.201097965240493	1027.096801757812	117.7953186035156	-200	0	-2.449293598294706e-14	-2.449293598294706e-14	1.224646799147353e-14	200	1.499759782661858e-30	200	-1.224646799147353e-14	
19	0.15	247.1262054443359	1432.204223632812	107.7452697753906	83.23612213134764	1532.575927734375	107.4827728271484	129.5823059082031	1522.112182617188	269.5853271484374	116.0426559448242	1517.967529296875	-31.69582176208504	279.9792785644531	1274.8310546875	119.9866561889648	2.258934020996079	1314.52880859375	117.9202346801757	187.4077606201172	1006.656616210938	263.2575988769531	211.9464111328125	1008.8935546875	-12.48918724060062	4.559916973113993	1031.354370117188	168.0990295410156	8.057061195373528	1025.7109375	63.80169677734369	5.985724925994861	1098.114624023438	102.2572555541991	120.3373184204101	1195.724975585938	396.5121459960937	309.2916259765624	998.8988647460938	421.9060974121094	326.7753906249999	998.9295043945312	372.1026306152344	276.1477661132812	969.1207885742188	428.0758361816406	39.01296997070314	1186.172485351562	-135.7366943359376	86.70381927490237	931.0319213867188	-201.1575775146485	49.55108261108401	925.6929931640625	-172.9938354492188	127.7538375854492	923.36669921875	-175.2715454101563	171.8326873779297	838.8151245117188	-68.58737182617192	250.6224975585938	618.2614135742188	-36.2085075378418	301.1799926757812	733.9266357421875	7.863443374633781	344.8448791503906	549.5277099609375	33.37400817871094	283.438720703125	383.2259216308594	-40.1570701599121	271.2050170898438	182.8930969238281	-5.410758495330789	316.0775756835938	280.8070983886719	27.57331466674807	134.0448760986328	808.7487182617188	312.0268859863281	142.9020080566406	570.8019409179688	309.4535522460937	228.8590087890625	722.8462524414062	254.9111785888672	200.8093872070312	467.2273254394531	261.3127441406249	58.1138648986816	454.5069274902344	322.5103759765625	-120.2510299682617	279.2833862304688	284.8034057617188	16.23004531860348	329.0176696777344	250.4924011230468	-252.3553771972657	273.801025390625	229.193618774414	-85.08528900146487	8.922223091125504	246.7093353271484	-156.2299041748047	74.6238479614258	194.621841430664	-162.5809326171875	77.63213348388673	310.9573059082031	-190.3030700683594	120.8493041992188	300.8006591796875	-130.0492248535157	141.8723907470703	244.3206024169922	-128.3018493652344	41.93611907958986	198.4556732177734	-128.2501373291016	42.69723892211916	301.934814453125	191.2638854980469	64.6719970703125	51.20913696289064	500.835205078125	63.49260330200195	9.226182937622129	406.8872985839844	37.68083572387696	70.88522338867193	397.011962890625	33.229248046875	-45.22492980957026	343.0408325195312	30.56145286560058	-31.52911567687984	378.1266784667969	98.27553558349609	21.73237037658695	448.2789916992188	39.57418441772462	63.18593597412115	440.6335144042969	44.27159881591797	-40.44283294677729	0	0	0	6.308488845825181	1028.532592773438	115.9503631591796	-200	0	-2.449293598294706e-14	-2.449293598294706e-14	1.224646799147353e-14	200	1.499759782661858e-30	200	-1.224646799147353e-14	
20	0.1583333333333334	255.3285522460938	1433.592895507812	106.6947402954101	90.9763717651367	1533.65234375	106.0393295288085	137.0419921875	1523.523315429688	268.0089721679686	124.6254806518555	1519.242431640625	-33.47003936767586	288.2624206542969	1276.25	118.8750381469726	10.59624958038329	1315.744995117188	116.5039672851562	195.5249633789062	1007.01513671875	261.8326721191406	220.5487518310547	1010.500671386719	-13.91577911376957	12.92823314666746	1032.841552734375	166.4967651367187	16.48836517333984	1027.163452148438	61.94206237792962	14.59022140502928	1099.644775390625	100.9276580810546	125.5115203857421	1197.025268554688	394.6947326660156	311.9207763671874	996.6719970703125	420.402587890625	329.6056213378906	996.3115844726562	370.6917114257812	278.1329345703124	967.5879516601562	426.5481567382812	51.60939788818361	1186.61083984375	-138.3058166503907	103.0137557983399	931.9326171875	-203.1368713378907	65.49150085449222	926.0191040039062	-175.3694152832032	143.7906646728516	924.67626953125	-176.2589111328125	179.2342071533203	839.25927734375	-69.41912078857425	255.4659576416016	618.1416625976562	-37.11800384521485	307.2992858886719	733.8062744140625	6.794298171997062	349.0674438476562	549.0846557617188	32.91605377197266	285.9061889648438	383.7725219726562	-40.88134002685545	272.4495544433594	182.7348937988281	-5.247807025909402	317.9319763183594	280.4564514160156	27.10009002685549	146.1185150146484	809.8231201171875	311.0176696777343	159.3014831542968	572.5447998046875	309.3894653320312	242.120864868164	725.2135009765625	254.4411315917968	219.5984497070312	469.4966430664062	261.4445190429687	75.64309692382808	458.1300659179688	322.5387573242188	-105.0537261962891	285.2557678222656	283.7071838378906	34.98171234130857	334.0934143066406	251.0906219482422	-236.4805145263672	280.7929382324219	226.519790649414	-76.48541259765628	10.85541439056398	247.2962036132812	-143.7763671875	79.11241149902345	194.5907745361328	-151.0076141357422	83.7100296020508	310.5208435058594	-177.9287719726563	127.3395004272461	299.9778137207031	-115.0453491210938	145.7745208740235	243.6666412353516	-117.8145446777344	45.52120971679689	198.5500335693359	-118.2916870117188	47.06904602050783	302.0193176269531	191.32275390625	64.31673431396484	51.51330566406251	500.9689025878906	63.3195686340332	9.262613296508848	406.8860473632812	37.59764480590821	70.89734649658209	396.9984130859375	33.19637298583984	-45.26913452148433	343.0303344726562	30.56161499023437	-31.54078865051266	378.15234375	98.16834259033203	21.76720428466801	448.3475036621094	39.45151519775391	63.18113708496099	440.7671813964844	44.21065139770508	-40.44960403442377	0	0	0	14.70829963684081	1030.00244140625	114.2194137573242	-200	0	-2.449293598294706e-14	-2.449293598294706e-14	1.224646799147353e-14	200	1.499759782661858e-30	200	-1.224646799147353e-14	
